<svg width="90" height="91" viewBox="0 0 90 91" fill="none" xmlns="http://www.w3.org/2000/svg">
<path d="M25.3628 38.1518C25.3628 39.2593 25.4825 40.1573 25.6921 40.8158C25.9315 41.4743 26.2308 42.1927 26.6499 42.971C26.7996 43.2104 26.8594 43.4499 26.8594 43.6594C26.8594 43.9588 26.6798 44.2581 26.2907 44.5574L24.4049 45.8146C24.1355 45.9942 23.8661 46.084 23.6267 46.084C23.3273 46.084 23.028 45.9343 22.7287 45.665C22.3096 45.216 21.9504 44.737 21.6511 44.2581C21.3518 43.7492 21.0524 43.1805 20.7232 42.492C18.3884 45.2459 15.4549 46.6228 11.9228 46.6228C9.40847 46.6228 7.40296 45.9044 5.93624 44.4676C4.46952 43.0308 3.72119 41.1151 3.72119 38.7205C3.72119 36.1762 4.61918 34.1108 6.4451 32.5543C8.27102 30.9978 10.6956 30.2195 13.7787 30.2195C14.7964 30.2195 15.8441 30.3093 16.9516 30.459C18.0591 30.6086 19.1966 30.8481 20.3939 31.1175V28.9324C20.3939 26.6575 19.915 25.071 18.987 24.1431C18.0292 23.2152 16.4128 22.7662 14.108 22.7662C13.0603 22.7662 11.9827 22.8859 10.8752 23.1553C9.76767 23.4247 8.69008 23.754 7.64242 24.173C7.16349 24.3825 6.8043 24.5023 6.59476 24.5621C6.38523 24.622 6.23557 24.6519 6.11584 24.6519C5.69677 24.6519 5.48724 24.3526 5.48724 23.724V22.2573C5.48724 21.7784 5.54711 21.4192 5.69677 21.2096C5.84644 21.0001 6.11584 20.7906 6.5349 20.5811C7.58256 20.0423 8.83974 19.5933 10.3065 19.2341C11.7732 18.8449 13.3297 18.6653 14.976 18.6653C18.5381 18.6653 21.1422 19.4735 22.8185 21.0899C24.4648 22.7063 25.3029 25.1608 25.3029 28.4534V38.1518H25.3628ZM13.21 42.7016C14.1978 42.7016 15.2155 42.522 16.2931 42.1628C17.3707 41.8036 18.3285 41.1451 19.1367 40.2471C19.6156 39.6783 19.9748 39.0497 20.1544 38.3314C20.334 37.613 20.4538 36.7449 20.4538 35.7272V34.47C19.5857 34.2605 18.6578 34.0809 17.6999 33.9611C16.7421 33.8414 15.8141 33.7815 14.8862 33.7815C12.8807 33.7815 11.414 34.1707 10.4262 34.9789C9.4384 35.787 8.95948 36.9245 8.95948 38.4212C8.95948 39.828 9.31867 40.8757 10.067 41.5941C10.7854 42.3424 11.833 42.7016 13.21 42.7016ZM37.2462 45.9343C36.7074 45.9343 36.3482 45.8445 36.1088 45.635C35.8693 45.4554 35.6598 45.0364 35.4802 44.4676L28.4459 21.3294C28.2663 20.7307 28.1765 20.3416 28.1765 20.1321C28.1765 19.6531 28.416 19.3837 28.8949 19.3837H31.8283C32.3971 19.3837 32.7862 19.4735 32.9957 19.6831C33.2352 19.8627 33.4148 20.2817 33.5944 20.8504L38.6231 40.6661L43.2927 20.8504C43.4424 20.2518 43.622 19.8627 43.8614 19.6831C44.1009 19.5035 44.5199 19.3837 45.0587 19.3837H47.4534C48.0221 19.3837 48.4112 19.4735 48.6507 19.6831C48.8902 19.8627 49.0997 20.2817 49.2194 20.8504L53.9489 40.9056L59.1273 20.8504C59.3069 20.2518 59.5164 19.8627 59.7259 19.6831C59.9654 19.5035 60.3545 19.3837 60.8933 19.3837H63.6771C64.156 19.3837 64.4254 19.6232 64.4254 20.1321C64.4254 20.2817 64.3955 20.4314 64.3656 20.611C64.3356 20.7906 64.2758 21.03 64.156 21.3593L56.9422 44.4976C56.7626 45.0962 56.553 45.4854 56.3136 45.665C56.0741 45.8445 55.685 45.9643 55.1761 45.9643H52.6019C52.0331 45.9643 51.644 45.8745 51.4046 45.665C51.1651 45.4554 50.9556 45.0663 50.8358 44.4676L46.1962 25.1608L41.5865 44.4377C41.4368 45.0364 41.2572 45.4255 41.0178 45.635C40.7783 45.8445 40.3593 45.9343 39.8205 45.9343H37.2462ZM75.7102 46.7425C74.1537 46.7425 72.5972 46.5629 71.1005 46.2037C69.6038 45.8445 68.4365 45.4554 67.6582 45.0064C67.1793 44.737 66.85 44.4377 66.7303 44.1683C66.6105 43.8989 66.5507 43.5996 66.5507 43.3302V41.8036C66.5507 41.175 66.7901 40.8757 67.2391 40.8757C67.4187 40.8757 67.5983 40.9056 67.7779 40.9655C67.9575 41.0253 68.2269 41.1451 68.5263 41.2648C69.544 41.7138 70.6515 42.073 71.8189 42.3124C73.0162 42.5519 74.1836 42.6716 75.3809 42.6716C77.2667 42.6716 78.7334 42.3424 79.7512 41.6839C80.7689 41.0253 81.3077 40.0675 81.3077 38.8402C81.3077 38.0021 81.0383 37.3136 80.4995 36.7449C79.9607 36.1762 78.943 35.6673 77.4762 35.1884L73.1359 33.8414C70.9508 33.1529 69.3344 32.1352 68.3467 30.7882C67.3589 29.4712 66.85 28.0044 66.85 26.4479C66.85 25.1907 67.1194 24.0832 67.6582 23.1254C68.197 22.1675 68.9154 21.3294 69.8134 20.6708C70.7114 19.9824 71.7291 19.4735 72.9264 19.1143C74.1237 18.7551 75.3809 18.6055 76.698 18.6055C77.3565 18.6055 78.045 18.6354 78.7035 18.7252C79.392 18.815 80.0206 18.9347 80.6491 19.0545C81.2478 19.2041 81.8165 19.3538 82.3553 19.5334C82.8941 19.713 83.3132 19.8926 83.6125 20.0722C84.0316 20.3117 84.3309 20.5511 84.5105 20.8205C84.6901 21.06 84.7799 21.3892 84.7799 21.8083V23.2152C84.7799 23.8438 84.5404 24.173 84.0914 24.173C83.852 24.173 83.4629 24.0533 82.954 23.8138C81.2478 23.0356 79.3321 22.6464 77.2068 22.6464C75.5007 22.6464 74.1537 22.9158 73.2257 23.4846C72.2978 24.0533 71.8189 24.9213 71.8189 26.1486C71.8189 26.9867 72.1182 27.7051 72.7169 28.2738C73.3155 28.8426 74.4231 29.4113 76.0095 29.9202L80.26 31.2672C82.4152 31.9556 83.9717 32.9135 84.8996 34.1407C85.8276 35.368 86.2766 36.7748 86.2766 38.3314C86.2766 39.6185 86.0072 40.7859 85.4983 41.8036C84.9595 42.8213 84.2411 43.7193 83.3132 44.4377C82.3853 45.186 81.2777 45.7248 79.9906 46.1139C78.6436 46.533 77.2368 46.7425 75.7102 46.7425Z" fill="#252F3E"/>
<path d="M81.3676 61.29C71.5197 68.5637 57.2117 72.4251 44.9092 72.4251C27.6677 72.4251 12.1325 66.0493 0.398713 55.453C-0.529211 54.6149 0.308914 53.4775 1.41644 54.136C14.1081 61.4995 29.763 65.9595 45.9568 65.9595C56.8824 65.9595 68.8855 63.6846 79.9308 59.0151C81.5772 58.2667 82.984 60.0927 81.3676 61.29ZM85.4685 56.6204C84.2113 55.004 77.1471 55.8422 73.9442 56.2313C72.9864 56.351 72.8367 55.5129 73.7048 54.8843C79.3322 50.9331 88.5815 52.0706 89.6591 53.3877C90.7367 54.7346 89.3598 63.984 84.0915 68.414C83.2833 69.1025 82.5051 68.7433 82.8643 67.8453C84.0616 64.8819 86.7256 58.2069 85.4685 56.6204Z" fill="#FF9900"/>
</svg>
