<svg width="64" height="64" viewBox="0 0 64 64" fill="none" xmlns="http://www.w3.org/2000/svg">
<path fill-rule="evenodd" clip-rule="evenodd" d="M58.8898 18.8719C58.8893 17.8382 58.6683 16.9247 58.2212 16.1408C57.782 15.3698 57.1243 14.7237 56.2421 14.2128C48.9599 10.0139 41.6706 5.82774 34.3907 1.6245C32.4281 0.491449 30.5252 0.532756 28.5771 1.68207C25.6786 3.39149 11.1666 11.7057 6.84223 14.2105C5.06133 15.2414 4.19474 16.8192 4.19431 18.87C4.19153 27.3144 4.19431 35.7585 4.19153 44.2031C4.19196 45.2142 4.40363 46.1099 4.83104 46.8821C5.27043 47.6763 5.93733 48.3402 6.83988 48.8627C11.1645 51.3674 25.6784 59.681 28.5763 61.3909C30.5252 62.5408 32.4281 62.5819 34.3914 61.4484C41.6714 57.245 48.9611 53.0591 56.2444 48.8601C57.147 48.3379 57.8139 47.6736 58.2533 46.8799C58.68 46.1077 58.8921 45.212 58.8926 44.2008C58.8926 44.2008 58.8926 27.3165 58.8898 18.8719" fill="#5C8DBC"/>
<path fill-rule="evenodd" clip-rule="evenodd" d="M31.6256 31.4542L4.83093 46.882C5.27033 47.6763 5.93723 48.3402 6.83977 48.8626C11.1644 51.3674 25.6783 59.681 28.5762 61.3908C30.5251 62.5408 32.428 62.5819 34.3913 61.4484C41.6713 57.2449 48.961 53.059 56.2443 48.8601C57.1469 48.3378 57.8138 47.6735 58.2532 46.8799L31.6256 31.4542" fill="#1A4674"/>
<path fill-rule="evenodd" clip-rule="evenodd" d="M23.6895 36.0241C25.2486 38.7461 28.1797 40.582 31.542 40.582C34.9251 40.582 37.8729 38.7227 39.4242 35.9717L31.6257 31.4542L23.6895 36.0241" fill="#1A4674"/>
<path fill-rule="evenodd" clip-rule="evenodd" d="M58.8898 18.8719C58.8894 17.8382 58.6683 16.9247 58.2212 16.1407L31.6257 31.4543L58.2533 46.8799C58.68 46.1077 58.8921 45.212 58.8926 44.2008C58.8926 44.2008 58.8926 27.3165 58.8898 18.8719" fill="#1B598E"/>
<path fill-rule="evenodd" clip-rule="evenodd" d="M57.4256 32.5569H55.3448V34.6381H53.2636V32.5569H51.1831V30.4764H53.2636V28.3956H55.3448V30.4764H57.4256V32.5569" fill="white"/>
<path fill-rule="evenodd" clip-rule="evenodd" d="M49.833 32.5569H47.7525V34.6381H45.6717V32.5569H43.5909V30.4764H45.6717V28.3956H47.7525V30.4764H49.833V32.5569" fill="white"/>
<path fill-rule="evenodd" clip-rule="evenodd" d="M39.4241 35.9717C37.8729 38.7227 34.9251 40.582 31.542 40.582C28.1797 40.582 25.2486 38.7461 23.6894 36.0241C22.932 34.7014 22.4964 33.1701 22.4964 31.5364C22.4964 26.5408 26.5464 22.4911 31.542 22.4911C34.8827 22.4911 37.7984 24.3041 39.3653 26.9982L47.2716 22.4455C44.129 17.0208 38.262 13.3712 31.542 13.3712C21.5093 13.3712 13.3766 21.5042 13.3766 31.5364C13.3766 34.8277 14.2522 37.9141 15.7824 40.5764C18.9171 46.0298 24.8008 49.7018 31.542 49.7018C38.2956 49.7018 44.1885 46.015 47.3187 40.5456L39.4241 35.9717" fill="white"/>
</svg>
