<svg width="77" height="76" viewBox="0 0 77 76" fill="none" xmlns="http://www.w3.org/2000/svg">
<g clip-path="url(#clip0_44_146)">
<path d="M38.717 76C59.7039 76 76.717 58.9868 76.717 38C76.717 17.0132 59.7039 0 38.717 0C17.7302 0 0.717041 17.0132 0.717041 38C0.717041 58.9868 17.7302 76 38.717 76Z" fill="#05930C"/>
<path d="M12.2662 10.717L65.9512 64.5009C59.0478 71.5941 49.3969 76 38.717 76C17.7302 76 0.717041 58.9868 0.717041 38C0.717041 27.2949 5.14363 17.6238 12.2662 10.717Z" fill="white" fill-opacity="0.1"/>
<path d="M36.8526 51.7156C34.2676 52.9734 31.4131 53.5769 28.5401 53.4731C24.6991 53.6414 20.9722 52.1438 18.3158 49.3643C15.6762 46.4055 14.2994 42.531 14.4801 38.57C14.2943 34.2775 15.8535 30.0926 18.8026 26.9681C21.6855 24.0187 25.677 22.4195 29.7989 22.5625C32.2067 22.4706 34.6077 22.8748 36.8526 23.75V27.4906C34.6752 26.2804 32.2185 25.6621 29.7276 25.6975C26.5899 25.5935 23.56 26.8487 21.4151 29.1412C19.1915 31.676 18.0416 34.9766 18.2089 38.3443C18.0444 41.527 19.1166 44.6501 21.2014 47.0606C23.2241 49.2353 26.095 50.4192 29.0626 50.3025C31.7991 50.3705 34.5005 49.6756 36.8645 48.2956L36.8526 51.7156ZM63.3695 31.4212L62.8945 33.63H57.432L56.1258 39.9H61.992L61.4339 42.1087H55.6864L53.8458 50.4212H51.2214L53.0145 42.1087H47.7895L46.032 50.4212H43.467L45.2245 42.1087H39.7145L40.1301 39.9H45.6639L46.9345 33.6418H41.1514L41.5908 31.4331H47.3739L49.1314 23.0375H51.7795L50.022 31.4331H55.2826L57.0758 23.0375H59.6408L57.8833 31.4331L63.3695 31.4212ZM54.8551 33.63H49.5826L48.217 39.9H53.5133L54.8551 33.63Z" fill="white"/>
</g>
<defs>
<clipPath id="clip0_44_146">
<rect width="76" height="76" fill="white" transform="translate(0.717041)"/>
</clipPath>
</defs>
</svg>
