<svg width="77" height="76" viewBox="0 0 77 76" fill="none" xmlns="http://www.w3.org/2000/svg">
<path fill-rule="evenodd" clip-rule="evenodd" d="M38.6214 1.78125C18.129 1.78125 1.51172 18.3954 1.51172 38.8909C1.51172 55.287 12.1448 69.1973 26.8896 74.1042C28.7442 74.4477 29.4251 73.2992 29.4251 72.319C29.4251 71.4341 29.3907 68.5108 29.3747 65.41C19.0508 67.6548 16.8723 61.0315 16.8723 61.0315C15.1842 56.7422 12.7519 55.6016 12.7519 55.6016C9.38496 53.2984 13.0057 53.3457 13.0057 53.3457C16.7322 53.6075 18.6943 57.1699 18.6943 57.1699C22.0041 62.8431 27.3757 61.203 29.4933 60.2547C29.8264 57.8563 30.7881 56.2192 31.8494 55.2925C23.6068 54.3541 14.9421 51.1721 14.9421 36.9527C14.9421 32.9012 16.3917 29.5908 18.7656 26.992C18.3803 26.0573 17.1101 22.2829 19.1251 17.1713C19.1251 17.1713 22.2413 16.1739 29.3329 20.9752C32.2931 20.153 35.4677 19.7406 38.6214 19.7265C41.7751 19.7406 44.9522 20.153 47.9179 20.9752C55.0008 16.1739 58.1128 17.1713 58.1128 17.1713C60.1327 22.2829 58.8619 26.0573 58.4766 26.992C60.856 29.5908 62.2958 32.9012 62.2958 36.9527C62.2958 51.2059 53.6145 54.3443 45.351 55.263C46.6821 56.4146 47.8681 58.673 47.8681 62.1352C47.8681 67.1005 47.8251 71.0967 47.8251 72.319C47.8251 73.3066 48.4931 74.4637 50.3741 74.0993C65.1109 69.1868 75.7305 55.2814 75.7305 38.8909C75.7305 18.3954 59.1157 1.78125 38.6214 1.78125ZM15.4105 54.6448C15.3288 54.8291 15.0387 54.8844 14.7745 54.7578C14.5053 54.6368 14.3541 54.3854 14.4414 54.2005C14.5213 54.0106 14.812 53.9577 15.0805 54.0849C15.3503 54.206 15.5039 54.4598 15.4105 54.6448ZM17.2359 56.2735C17.0589 56.4376 16.7129 56.3614 16.4782 56.1021C16.2354 55.8434 16.19 55.4974 16.3694 55.3309C16.5519 55.1668 16.8875 55.2436 17.1308 55.5023C17.3735 55.7641 17.4209 56.1076 17.2359 56.2735ZM18.4882 58.3575C18.2608 58.5154 17.889 58.3673 17.6592 58.0373C17.4318 57.7073 17.4318 57.3116 17.6641 57.153C17.8945 56.9945 18.2608 57.1371 18.4937 57.4646C18.7205 57.8001 18.7205 58.1959 18.4882 58.3575ZM20.606 60.771C20.4026 60.9953 19.9694 60.9351 19.6523 60.629C19.3278 60.3298 19.2375 59.9051 19.4415 59.6808C19.6474 59.4559 20.0831 59.5192 20.4026 59.8228C20.7246 60.1215 20.823 60.5492 20.606 60.771ZM23.3432 61.5858C23.2535 61.8764 22.8362 62.0086 22.4159 61.885C21.9962 61.7578 21.7215 61.4174 21.8063 61.1237C21.8935 60.8311 22.3126 60.6935 22.7361 60.8256C23.1552 60.9522 23.4305 61.2902 23.3432 61.5858ZM26.4582 61.9314C26.4686 62.2374 26.1122 62.4912 25.671 62.4967C25.2273 62.5066 24.8684 62.2589 24.8635 61.9578C24.8635 61.6487 25.2119 61.3974 25.6556 61.39C26.0969 61.3814 26.4582 61.6272 26.4582 61.9314ZM29.5183 61.8141C29.5712 62.1127 29.2645 62.4194 28.8264 62.5011C28.3956 62.5798 27.9968 62.3954 27.9421 62.0992C27.8886 61.7932 28.2008 61.4865 28.631 61.4073C29.0697 61.3311 29.4624 61.5105 29.5183 61.8141Z" fill="#161614"/>
</svg>
