<svg width="71" height="64" viewBox="0 0 71 64" fill="none" xmlns="http://www.w3.org/2000/svg">
<g clip-path="url(#clip0_43_39)">
<path d="M35.2245 38.7725C38.8969 38.7725 41.8739 35.7404 41.8739 32C41.8739 28.2597 38.8969 25.2275 35.2245 25.2275C31.5522 25.2275 28.5752 28.2597 28.5752 32C28.5752 35.7404 31.5522 38.7725 35.2245 38.7725Z" fill="#087EA4"/>
<path d="M35.2245 47.238C53.5862 47.238 68.4713 40.4157 68.4713 31.9999C68.4713 23.5842 53.5862 16.7618 35.2245 16.7618C16.8629 16.7618 1.97778 23.5842 1.97778 31.9999C1.97778 40.4157 16.8629 47.238 35.2245 47.238Z" stroke="#087EA4" stroke-width="3"/>
<path d="M22.268 39.619C31.4488 55.8152 44.6922 65.5336 51.848 61.3257C59.0037 57.1178 57.3621 40.5771 48.1812 24.3809C39.0004 8.18475 25.757 -1.53366 18.6012 2.67422C11.4455 6.88211 13.0871 23.4228 22.268 39.619Z" stroke="#087EA4" stroke-width="3"/>
<path d="M22.2678 24.3808C13.0869 40.577 11.4453 57.1177 18.6011 61.3256C25.7568 65.5335 39.0002 55.8151 48.1811 39.6189C57.3619 23.4228 59.0036 6.88205 51.8478 2.67416C44.692 -1.53372 31.4486 8.18469 22.2678 24.3808Z" stroke="#087EA4" stroke-width="3"/>
</g>
<defs>
<clipPath id="clip0_43_39">
<rect width="69.8182" height="64" fill="white" transform="translate(0.31543)"/>
</clipPath>
</defs>
</svg>
