<svg width="31" height="64" viewBox="0 0 31 64" fill="none" xmlns="http://www.w3.org/2000/svg">
<g clip-path="url(#clip0_43_78)">
<path d="M21.0865 7.13325C18.3885 3.94632 16.0653 0.709589 15.5907 0.0373468C15.5407 -0.0124489 15.4657 -0.0124489 15.4158 0.0373468C14.9411 0.709589 12.6179 3.94632 9.91994 7.13325C-13.2374 36.5376 13.5672 56.3813 13.5672 56.3813L13.792 56.5306C13.9918 59.5932 14.4915 64 14.4915 64H15.4907H16.49C16.49 64 16.9896 59.618 17.1894 56.5306L17.4142 56.3565C17.4392 56.3565 44.2438 36.5376 21.0865 7.13325ZM15.4907 55.933C15.4907 55.933 14.2916 54.9123 13.9669 54.3893V54.3397L15.4158 22.3209C15.4158 22.2213 15.5657 22.2213 15.5657 22.3209L17.0146 54.3397V54.3893C16.6898 54.9123 15.4907 55.933 15.4907 55.933Z" fill="#00684A"/>
</g>
<defs>
<clipPath id="clip0_43_78">
<rect width="29.7674" height="64" fill="white" transform="translate(0.495117)"/>
</clipPath>
</defs>
</svg>
