<svg width="44" height="64" viewBox="0 0 44 64" fill="none" xmlns="http://www.w3.org/2000/svg">
<g clip-path="url(#clip0_43_94)">
<path d="M21.8638 32C21.8638 29.171 22.9876 26.4579 24.988 24.4575C26.9884 22.4571 29.7015 21.3333 32.5304 21.3333C35.3594 21.3333 38.0725 22.4571 40.0729 24.4575C42.0733 26.4579 43.1971 29.171 43.1971 32C43.1971 34.829 42.0733 37.5421 40.0729 39.5425C38.0725 41.5428 35.3594 42.6666 32.5304 42.6666C29.7015 42.6666 26.9884 41.5428 24.988 39.5425C22.9876 37.5421 21.8638 34.829 21.8638 32Z" fill="#1ABCFE"/>
<path d="M0.530518 53.3334C0.530518 50.5044 1.65432 47.7913 3.65471 45.7909C5.6551 43.7905 8.36821 42.6667 11.1972 42.6667H21.8639V53.3334C21.8639 56.1623 20.74 58.8754 18.7397 60.8758C16.7393 62.8762 14.0262 64 11.1972 64C8.36821 64 5.6551 62.8762 3.65471 60.8758C1.65432 58.8754 0.530518 56.1623 0.530518 53.3334Z" fill="#0ACF83"/>
<path d="M21.8638 0V21.3333H32.5304C35.3594 21.3333 38.0725 20.2095 40.0729 18.2091C42.0733 16.2087 43.1971 13.4956 43.1971 10.6667C43.1971 7.83769 42.0733 5.12458 40.0729 3.12419C38.0725 1.12381 35.3594 0 32.5304 0L21.8638 0Z" fill="#FF7262"/>
<path d="M0.530518 10.6667C0.530518 13.4956 1.65432 16.2087 3.65471 18.2091C5.6551 20.2095 8.36821 21.3333 11.1972 21.3333H21.8639V0H11.1972C8.36821 0 5.6551 1.12381 3.65471 3.12419C1.65432 5.12458 0.530518 7.83769 0.530518 10.6667Z" fill="#F24E1E"/>
<path d="M0.530518 32C0.530518 34.829 1.65432 37.5421 3.65471 39.5425C5.6551 41.5428 8.36821 42.6666 11.1972 42.6666H21.8639V21.3333H11.1972C8.36821 21.3333 5.6551 22.4571 3.65471 24.4575C1.65432 26.4579 0.530518 29.171 0.530518 32Z" fill="#A259FF"/>
</g>
<defs>
<clipPath id="clip0_43_94">
<rect width="42.6667" height="64" fill="white" transform="translate(0.530518)"/>
</clipPath>
</defs>
</svg>
