<svg width="106" height="64" viewBox="0 0 106 64" fill="none" xmlns="http://www.w3.org/2000/svg">
<g clip-path="url(#clip0_43_86)">
<mask id="mask0_43_86" style="mask-type:luminance" maskUnits="userSpaceOnUse" x="0" y="0" width="106" height="63">
<path d="M0.757568 0H105.485V62.8364H0.757568V0Z" fill="white"/>
</mask>
<g mask="url(#mask0_43_86)">
<path fill-rule="evenodd" clip-rule="evenodd" d="M53.1212 0C39.1576 0 30.4303 6.98182 26.9394 20.9455C32.1757 13.9636 38.2848 11.3455 45.2667 13.0909C49.2502 14.0858 52.0972 16.9775 55.2487 20.1755C60.3823 25.3867 66.3246 31.4182 79.303 31.4182C93.2667 31.4182 101.994 24.4364 105.485 10.4727C100.248 17.4545 94.1394 20.0727 87.1576 18.3273C83.174 17.3324 80.327 14.4407 77.1755 11.2427C72.0419 6.03151 66.0996 0 53.1212 0ZM26.9394 31.4182C12.9757 31.4182 4.24848 38.4 0.757568 52.3636C5.99393 45.3818 12.103 42.7636 19.0848 44.5091C23.0684 45.5059 25.9154 48.3956 29.0669 51.5937C34.2005 56.8048 40.1428 62.8364 53.1212 62.8364C67.0848 62.8364 75.8121 55.8545 79.303 41.8909C74.0667 48.8727 67.9576 51.4909 60.9757 49.7455C56.9922 48.7505 54.1452 45.8589 50.9937 42.6608C45.8601 37.4497 39.9178 31.4182 26.9394 31.4182Z" fill="#38BDF8"/>
</g>
</g>
<defs>
<clipPath id="clip0_43_86">
<rect width="104.727" height="64" fill="white" transform="translate(0.757568)"/>
</clipPath>
</defs>
</svg>
