<svg width="65" height="64" viewBox="0 0 65 64" fill="none" xmlns="http://www.w3.org/2000/svg">
<path d="M56.5092 29.4667L34.7758 7.73335C34.1092 7.06669 33.1758 6.66669 32.2425 6.66669C31.3092 6.66669 30.3758 7.06669 29.7092 7.73335L25.0425 12.4L30.5092 17.8667C31.0425 17.6 31.5758 17.4667 32.2425 17.4667C34.5092 17.4667 36.2425 19.2 36.2425 21.4667C36.2425 22.1334 36.1092 22.6667 35.8425 23.2L41.1758 28.5334C41.7092 28.2667 42.2425 28.1334 42.9092 28.1334C45.1758 28.1334 46.9092 29.8667 46.9092 32.1334C46.9092 34.4 45.1758 36.1334 42.9092 36.1334C40.6425 36.1334 38.9092 34.4 38.9092 32.1334C38.9092 31.4667 39.0425 30.9334 39.3092 30.4L33.9758 25.0667C33.8425 25.0667 33.7092 25.2 33.5758 25.2V39.0667C35.1758 39.6 36.2425 41.0667 36.2425 42.8C36.2425 45.0667 34.5092 46.8 32.2425 46.8C29.9758 46.8 28.2425 45.0667 28.2425 42.8C28.2425 41.0667 29.3092 39.6 30.9092 39.0667V25.0667C29.3092 24.5334 28.2425 23.0667 28.2425 21.3334C28.2425 20.6667 28.3758 20.1334 28.6425 19.6L23.1758 14.1334L7.97585 29.4667C7.30918 30.1334 6.90918 31.0667 6.90918 32C6.90918 32.9334 7.30918 33.8667 7.97585 34.5334L29.7092 56.2667C30.3758 56.9334 31.3092 57.3334 32.2425 57.3334C33.1758 57.3334 34.1092 56.9334 34.7758 56.2667L56.5092 34.5334C57.1758 33.8667 57.5758 32.9334 57.5758 32C57.5758 31.0667 57.1758 30.1334 56.5092 29.4667Z" fill="#F4511E"/>
</svg>
