<svg width="77" height="76" viewBox="0 0 77 76" fill="none" xmlns="http://www.w3.org/2000/svg">
<g clip-path="url(#clip0_44_145)">
<path d="M28.9966 58.775C28.9966 58.775 26.0923 60.464 31.0635 61.0355C37.0859 61.7225 40.1639 61.624 46.8007 60.3679C46.8007 60.3679 48.5455 61.462 50.9824 62.4096C36.1045 68.786 17.3109 62.0402 28.9966 58.775Z" fill="#5382A1"/>
<path d="M27.179 50.4542C27.179 50.4542 23.9216 52.8654 28.8964 53.38C35.3298 54.0437 40.4103 54.098 49.2016 52.4052C49.2016 52.4052 50.4176 53.6379 52.3296 54.3121C34.3414 59.5721 14.3058 54.7269 27.179 50.4542Z" fill="#5382A1"/>
<path d="M42.5052 36.3394C46.1711 40.56 41.5421 44.358 41.5421 44.358C41.5421 44.358 50.8504 39.5528 46.5755 33.5355C42.5829 27.924 39.5211 25.1358 56.0965 15.5227C56.0965 15.5227 30.0786 22.0208 42.5052 36.3394Z" fill="#E76F00"/>
<path d="M62.1823 64.9295C62.1823 64.9295 64.3315 66.7004 59.8153 68.0704C51.2276 70.6719 24.0724 71.4575 16.5288 68.1741C13.8171 66.9944 18.9024 65.3573 20.502 65.0137C22.1702 64.652 23.1236 64.7194 23.1236 64.7194C20.1079 62.5949 3.63122 68.8908 14.7543 70.6939C45.0884 75.6132 70.0506 68.4787 62.1823 64.9295Z" fill="#5382A1"/>
<path d="M30.3938 41.8329C30.3938 41.8329 16.581 45.1137 25.5023 46.3051C29.2692 46.8094 36.7784 46.6953 43.773 46.1093C49.4894 45.6271 55.2294 44.6018 55.2294 44.6018C55.2294 44.6018 53.2137 45.465 51.7554 46.4608C37.7287 50.1498 10.6317 48.4336 18.4325 44.6602C25.0298 41.4712 30.3938 41.8329 30.3938 41.8329Z" fill="#5382A1"/>
<path d="M55.1721 55.6832C69.4309 48.2738 62.8382 41.1534 58.2365 42.1127C57.1087 42.3474 56.6058 42.5509 56.6058 42.5509C56.6058 42.5509 57.0245 41.8949 57.8242 41.611C66.9277 38.4105 73.9289 51.0505 54.8855 56.0567C54.8855 56.0569 55.1061 55.8596 55.1721 55.6832Z" fill="#5382A1"/>
<path d="M46.5757 0C46.5757 0 54.4724 7.89942 39.0859 20.0465C26.7476 29.7905 36.2724 35.3463 39.0808 41.694C31.8787 35.196 26.5933 29.4757 30.1392 24.1518C35.3436 16.3368 49.7618 12.5477 46.5757 0Z" fill="#E76F00"/>
<path d="M31.7945 75.7611C45.4812 76.6372 66.4986 75.275 66.9964 68.7988C66.9964 68.7988 66.0396 71.2539 55.6851 73.2036C44.0032 75.402 29.5953 75.1453 21.0498 73.7364C21.05 73.7362 22.7992 75.1842 31.7945 75.7611Z" fill="#5382A1"/>
</g>
<defs>
<clipPath id="clip0_44_145">
<rect width="76" height="76" fill="white" transform="translate(0.851074)"/>
</clipPath>
</defs>
</svg>
