<svg width="65" height="64" viewBox="0 0 65 64" fill="none" xmlns="http://www.w3.org/2000/svg">
<path d="M0.583252 64V0H64.5833V64H0.583252Z" fill="#FFD600"/>
<path d="M42.4286 47.9058C43.6588 49.904 44.9957 51.8187 47.8277 51.8187C50.2064 51.8187 51.4544 50.6365 51.4544 49.0009C51.4544 47.0436 50.1637 46.3485 47.5468 45.2089L46.1122 44.5973C41.9717 42.8409 39.218 40.64 39.218 35.9911C39.218 31.7067 42.498 28.4462 47.6233 28.4462C51.2731 28.4462 53.8953 29.7102 55.7868 33.0205L51.3175 35.8773C50.3344 34.1209 49.2713 33.4293 47.6233 33.4293C45.9415 33.4293 44.8766 34.4907 44.8766 35.8773C44.8766 37.5911 45.9433 38.2845 48.4055 39.3458L49.8402 39.9573C54.7202 42.0356 57.4722 44.1582 57.4722 48.9298C57.4722 54.0711 53.4117 56.8889 47.9611 56.8889C42.6295 56.8889 39.602 54.2133 37.9166 50.9013L42.4286 47.9058ZM21.8313 48.0516C22.7308 49.6622 24.098 50.9013 26.0642 50.9013C27.9451 50.9013 29.0277 50.1582 29.0277 47.2693V28.4445H34.9531V48.1796C34.9531 54.1653 31.4811 56.8889 26.4108 56.8889C21.8295 56.8889 18.5228 53.7849 17.1753 50.9013L21.8313 48.0516Z" fill="#000001"/>
</svg>
