<svg width="193" height="44" viewBox="0 0 193 44" fill="none" xmlns="http://www.w3.org/2000/svg">
<path d="M159.5 28.1262V11.5148C159.5 11.5148 159.719 7.41658 158.79 7.41658C158.025 7.41658 157.478 9.2198 155.948 13.1541L145.621 39.0002H138.353L148.626 13.1541C151.686 4.84837 154.364 0.640869 159.773 0.640869C163.598 0.640869 166.276 4.52051 166.276 11.5148V28.1262C166.276 28.1262 166.003 32.2244 166.931 32.2244C167.587 32.2244 168.079 30.8584 169.172 28.0716H169.117L175.073 13.1541C178.133 4.84837 180.811 0.640869 186.22 0.640869C190.045 0.640869 192.723 4.52051 192.723 11.5148V39.0002H185.947V11.5148C185.947 11.5148 186.166 7.41658 185.237 7.41658C184.472 7.41658 183.925 9.2198 182.395 13.1541L177.04 26.5962C174.035 34.8473 171.303 39.0002 165.948 39.0002C162.123 39.0002 159.5 35.0659 159.5 28.1262Z" fill="black"/>
<path d="M132.899 11.8971V39H126.123V11.8971C126.123 9.05569 125.686 7.19783 123.828 7.19783C120.713 7.19783 117.927 12.0064 116.67 14.0282L100.496 39H92.4084L108.583 14.0282C114.156 5.39462 117.763 0.422119 125.194 0.422119C129.784 0.422119 132.899 4.68426 132.899 11.8971Z" fill="black"/>
<path d="M80.8195 22.3887L89.6716 39.0002H82.0216L78.2513 31.7873C76.1748 28.2355 74.153 23.2084 71.9127 23.2084H67.432C64.973 23.2084 62.9512 25.2302 62.9512 27.6891V39.0002H56.1755V27.6891C56.1755 21.4598 61.2027 16.4327 67.432 16.4327H76.5573C82.5134 16.4327 82.5134 7.41658 76.5573 7.41658H56.1755V0.640869H76.5573C88.9066 0.640869 92.1852 17.7441 80.8195 22.3887Z" fill="black"/>
<path d="M32.5143 0.258301C51.5847 0.258301 59.2893 24.8476 43.7707 35.7762L47.9782 43.3169H40.2189L37.6507 38.6722C25.2468 42.0601 12.9521 32.7708 12.9521 19.8204C12.9521 9.00116 21.695 0.258301 32.5143 0.258301ZM32.5143 32.6069C33.0607 32.6069 33.6618 32.5522 34.2082 32.4976L29.2357 23.4815H36.9404L40.4375 29.7654C50 22.0608 44.3718 7.03402 32.5143 7.03402C25.52 7.03402 19.7279 12.7715 19.7279 19.7658C19.7279 26.7601 25.52 32.6069 32.5143 32.6069Z" fill="black"/>
<path d="M0.732178 39.0002V0.695557H7.50789V39.0002H0.732178Z" fill="black"/>
</svg>
