<svg width="65" height="64" viewBox="0 0 65 64" fill="none" xmlns="http://www.w3.org/2000/svg">
<g clip-path="url(#clip0_44_144)">
<path d="M32.2412 0.246582C16.2564 0.246583 17.2546 7.17858 17.2546 7.17858L17.2724 14.3601H32.5264V16.5163H11.2136C11.2136 16.5163 0.984863 15.3563 0.984863 31.4851C0.984862 47.614 9.91271 47.0421 9.91271 47.0421H15.2409V39.5576C15.2409 39.5576 14.9537 30.6298 24.0262 30.6298H39.1554C39.1554 30.6298 47.6556 30.7672 47.6556 22.4147V8.60419C47.6556 8.60419 48.9462 0.246582 32.2412 0.246582ZM23.8302 5.07582C25.3478 5.07582 26.5745 6.30245 26.5745 7.82011C26.5745 9.33776 25.3478 10.5644 23.8302 10.5644C22.3125 10.5644 21.0859 9.33776 21.0859 7.82011C21.0859 6.30245 22.3125 5.07582 23.8302 5.07582Z" fill="url(#paint0_linear_44_144)"/>
<path d="M32.6953 62.8854C48.6801 62.8854 47.6819 55.9534 47.6819 55.9534L47.6641 48.7719H32.4102V46.6157H53.7229C53.7229 46.6157 63.9517 47.7757 63.9517 31.6468C63.9517 15.5179 55.0238 16.0899 55.0238 16.0899H49.6956V23.5743C49.6956 23.5743 49.9828 32.5022 40.9103 32.5022H25.7811C25.7811 32.5022 17.2809 32.3648 17.2809 40.7172V54.5278C17.2809 54.5278 15.9904 62.8854 32.6953 62.8854ZM41.1063 58.0561C39.5887 58.0561 38.3621 56.8295 38.3621 55.3119C38.3621 53.7942 39.5887 52.5676 41.1063 52.5676C42.624 52.5676 43.8506 53.7942 43.8506 55.3119C43.8506 56.8295 42.624 58.0561 41.1063 58.0561Z" fill="url(#paint1_linear_44_144)"/>
</g>
<defs>
<linearGradient id="paint0_linear_44_144" x1="7.03609" y1="5.88078" x2="38.2401" y2="36.7735" gradientUnits="userSpaceOnUse">
<stop stop-color="#387EB8"/>
<stop offset="1" stop-color="#366994"/>
</linearGradient>
<linearGradient id="paint1_linear_44_144" x1="26.1892" y1="25.718" x2="59.699" y2="57.3959" gradientUnits="userSpaceOnUse">
<stop stop-color="#FFE052"/>
<stop offset="1" stop-color="#FFC331"/>
</linearGradient>
<clipPath id="clip0_44_144">
<rect width="63.1186" height="63.1186" fill="white" transform="translate(0.984863)"/>
</clipPath>
</defs>
</svg>
