<svg width="65" height="64" viewBox="0 0 65 64" fill="none" xmlns="http://www.w3.org/2000/svg">
<g clip-path="url(#clip0_43_34)">
<path d="M61.4495 0H3.44946C1.79261 0 0.449463 1.34315 0.449463 3V61C0.449463 62.6569 1.79261 64 3.44946 64H61.4495C63.1063 64 64.4495 62.6569 64.4495 61V3C64.4495 1.34315 63.1063 0 61.4495 0Z" fill="#3178C6"/>
<path fill-rule="evenodd" clip-rule="evenodd" d="M37.5806 49.734V56.747C38.7168 57.331 40.0605 57.7695 41.6118 58.0615C43.1632 58.354 44.7982 58.5 46.5171 58.5C48.1922 58.5 49.7836 58.3395 51.291 58.018C52.799 57.6965 54.1205 57.167 55.257 56.429C56.393 55.691 57.2925 54.727 57.9555 53.536C58.618 52.3455 58.9495 50.8735 58.9495 49.1203C58.9495 47.8493 58.76 46.7353 58.3815 45.7783C58.0025 44.8214 57.4565 43.9704 56.7425 43.2252C56.029 42.4801 55.173 41.8117 54.1755 41.22C53.1775 40.6283 52.0525 40.0694 50.7995 39.5435C49.8819 39.1636 49.0589 38.7947 48.3306 38.4368C47.6022 38.0788 46.9832 37.7136 46.4734 37.341C45.9635 36.9684 45.5702 36.574 45.2935 36.1576C45.0167 35.7413 44.8783 35.27 44.8783 34.7441C44.8783 34.2619 45.0021 33.8273 45.2498 33.4402C45.4974 33.053 45.847 32.7206 46.2986 32.443C46.7501 32.1655 47.3036 31.95 47.9591 31.7966C48.6146 31.6431 49.3429 31.5664 50.1441 31.5664C50.727 31.5664 51.342 31.6103 51.9905 31.6979C52.6385 31.7856 53.2905 31.9207 53.946 32.1034C54.6015 32.286 55.2385 32.5161 55.858 32.7937C56.477 33.0713 57.0485 33.3927 57.573 33.7579V27.2054C56.5095 26.7963 55.348 26.4931 54.088 26.2959C52.828 26.0986 51.3825 26 49.7508 26C48.0902 26 46.5171 26.1789 45.0313 26.5369C43.5455 26.8948 42.2382 27.4537 41.1093 28.2134C39.9804 28.9731 39.0882 29.941 38.4327 31.1171C37.7772 32.2932 37.4495 33.6995 37.4495 35.3358C37.4495 37.4251 38.0503 39.2074 39.2521 40.683C40.4538 42.1587 42.2782 43.4079 44.7254 44.4305C45.6868 44.825 46.5826 45.2122 47.4129 45.592C48.2432 45.9719 48.9606 46.3664 49.5651 46.7755C50.1696 47.1846 50.6465 47.6302 50.996 48.1123C51.346 48.5944 51.5205 49.1423 51.5205 49.7559C51.5205 50.209 51.4115 50.629 51.193 51.016C50.9745 51.403 50.643 51.739 50.1987 52.024C49.7544 52.309 49.2009 52.532 48.5381 52.6925C47.8754 52.853 47.0997 52.9335 46.2112 52.9335C44.6962 52.9335 43.1959 52.667 41.7101 52.1335C40.2244 51.6005 38.8479 50.8005 37.5806 49.734ZM25.8008 32.2772H34.9495V26.5H9.44946V32.2772H18.5534V58H25.8008V32.2772Z" fill="white"/>
</g>
<defs>
<clipPath id="clip0_43_34">
<rect width="64" height="64" fill="white" transform="translate(0.449463)"/>
</clipPath>
</defs>
</svg>
